<?xml version='1.0' encoding='UTF-8'?>
<svg width="45mm" height="45mm" version="1.1" viewBox="0 0 45 45" xmlns="http://www.w3.org/2000/svg"><path d="M4,4H5V5H4zM5,4H6V5H5zM6,4H7V5H6zM7,4H8V5H7zM8,4H9V5H8zM9,4H10V5H9zM10,4H11V5H10zM13,4H14V5H13zM18,4H19V5H18zM22,4H23V5H22zM23,4H24V5H23zM24,4H25V5H24zM27,4H28V5H27zM32,4H33V5H32zM34,4H35V5H34zM35,4H36V5H35zM36,4H37V5H36zM37,4H38V5H37zM38,4H39V5H38zM39,4H40V5H39zM40,4H41V5H40zM4,5H5V6H4zM10,5H11V6H10zM12,5H13V6H12zM13,5H14V6H13zM15,5H16V6H15zM16,5H17V6H16zM18,5H19V6H18zM19,5H20V6H19zM26,5H27V6H26zM28,5H29V6H28zM31,5H32V6H31zM34,5H35V6H34zM40,5H41V6H40zM4,6H5V7H4zM6,6H7V7H6zM7,6H8V7H7zM8,6H9V7H8zM10,6H11V7H10zM13,6H14V7H13zM14,6H15V7H14zM15,6H16V7H15zM19,6H20V7H19zM20,6H21V7H20zM23,6H24V7H23zM24,6H25V7H24zM25,6H26V7H25zM26,6H27V7H26zM27,6H28V7H27zM28,6H29V7H28zM30,6H31V7H30zM32,6H33V7H32zM34,6H35V7H34zM36,6H37V7H36zM37,6H38V7H37zM38,6H39V7H38zM40,6H41V7H40zM4,7H5V8H4zM6,7H7V8H6zM7,7H8V8H7zM8,7H9V8H8zM10,7H11V8H10zM12,7H13V8H12zM13,7H14V8H13zM15,7H16V8H15zM17,7H18V8H17zM18,7H19V8H18zM19,7H20V8H19zM20,7H21V8H20zM21,7H22V8H21zM22,7H23V8H22zM24,7H25V8H24zM26,7H27V8H26zM29,7H30V8H29zM30,7H31V8H30zM34,7H35V8H34zM36,7H37V8H36zM37,7H38V8H37zM38,7H39V8H38zM40,7H41V8H40zM4,8H5V9H4zM6,8H7V9H6zM7,8H8V9H7zM8,8H9V9H8zM10,8H11V9H10zM14,8H15V9H14zM16,8H17V9H16zM21,8H22V9H21zM22,8H23V9H22zM23,8H24V9H23zM25,8H26V9H25zM27,8H28V9H27zM30,8H31V9H30zM34,8H35V9H34zM36,8H37V9H36zM37,8H38V9H37zM38,8H39V9H38zM40,8H41V9H40zM4,9H5V10H4zM10,9H11V10H10zM12,9H13V10H12zM14,9H15V10H14zM18,9H19V10H18zM19,9H20V10H19zM20,9H21V10H20zM24,9H25V10H24zM26,9H27V10H26zM28,9H29V10H28zM31,9H32V10H31zM32,9H33V10H32zM34,9H35V10H34zM40,9H41V10H40zM4,10H5V11H4zM5,10H6V11H5zM6,10H7V11H6zM7,10H8V11H7zM8,10H9V11H8zM9,10H10V11H9zM10,10H11V11H10zM12,10H13V11H12zM14,10H15V11H14zM16,10H17V11H16zM18,10H19V11H18zM20,10H21V11H20zM22,10H23V11H22zM24,10H25V11H24zM26,10H27V11H26zM28,10H29V11H28zM30,10H31V11H30zM32,10H33V11H32zM34,10H35V11H34zM35,10H36V11H35zM36,10H37V11H36zM37,10H38V11H37zM38,10H39V11H38zM39,10H40V11H39zM40,10H41V11H40zM16,11H17V12H16zM19,11H20V12H19zM20,11H21V12H20zM25,11H26V12H25zM26,11H27V12H26zM28,11H29V12H28zM31,11H32V12H31zM32,11H33V12H32zM4,12H5V13H4zM5,12H6V13H5zM6,12H7V13H6zM7,12H8V13H7zM8,12H9V13H8zM10,12H11V13H10zM11,12H12V13H11zM12,12H13V13H12zM13,12H14V13H13zM14,12H15V13H14zM16,12H17V13H16zM17,12H18V13H17zM19,12H20V13H19zM20,12H21V13H20zM21,12H22V13H21zM22,12H23V13H22zM24,12H25V13H24zM26,12H27V13H26zM29,12H30V13H29zM30,12H31V13H30zM31,12H32V13H31zM33,12H34V13H33zM35,12H36V13H35zM37,12H38V13H37zM39,12H40V13H39zM4,13H5V14H4zM6,13H7V14H6zM7,13H8V14H7zM8,13H9V14H8zM11,13H12V14H11zM12,13H13V14H12zM18,13H19V14H18zM23,13H24V14H23zM25,13H26V14H25zM26,13H27V14H26zM27,13H28V14H27zM30,13H31V14H30zM32,13H33V14H32zM33,13H34V14H33zM37,13H38V14H37zM38,13H39V14H38zM39,13H40V14H39zM4,14H5V15H4zM5,14H6V15H5zM7,14H8V15H7zM8,14H9V15H8zM10,14H11V15H10zM11,14H12V15H11zM12,14H13V15H12zM13,14H14V15H13zM15,14H16V15H15zM16,14H17V15H16zM18,14H19V15H18zM19,14H20V15H19zM20,14H21V15H20zM31,14H32V15H31zM32,14H33V15H32zM35,14H36V15H35zM37,14H38V15H37zM38,14H39V15H38zM40,14H41V15H40zM4,15H5V16H4zM5,15H6V16H5zM8,15H9V16H8zM9,15H10V16H9zM12,15H13V16H12zM14,15H15V16H14zM15,15H16V16H15zM20,15H21V16H20zM22,15H23V16H22zM24,15H25V16H24zM25,15H26V16H25zM27,15H28V16H27zM31,15H32V16H31zM32,15H33V16H32zM33,15H34V16H33zM34,15H35V16H34zM37,15H38V16H37zM39,15H40V16H39zM4,16H5V17H4zM7,16H8V17H7zM8,16H9V17H8zM9,16H10V17H9zM10,16H11V17H10zM11,16H12V17H11zM14,16H15V17H14zM15,16H16V17H15zM17,16H18V17H17zM18,16H19V17H18zM19,16H20V17H19zM20,16H21V17H20zM21,16H22V17H21zM22,16H23V17H22zM26,16H27V17H26zM27,16H28V17H27zM28,16H29V17H28zM29,16H30V17H29zM31,16H32V17H31zM34,16H35V17H34zM35,16H36V17H35zM36,16H37V17H36zM37,16H38V17H37zM38,16H39V17H38zM40,16H41V17H40zM4,17H5V18H4zM7,17H8V18H7zM8,17H9V18H8zM12,17H13V18H12zM13,17H14V18H13zM16,17H17V18H16zM23,17H24V18H23zM24,17H25V18H24zM25,17H26V18H25zM27,17H28V18H27zM28,17H29V18H28zM29,17H30V18H29zM32,17H33V18H32zM33,17H34V18H33zM38,17H39V18H38zM39,17H40V18H39zM4,18H5V19H4zM7,18H8V19H7zM10,18H11V19H10zM12,18H13V19H12zM13,18H14V19H13zM18,18H19V19H18zM19,18H20V19H19zM24,18H25V19H24zM25,18H26V19H25zM28,18H29V19H28zM29,18H30V19H29zM30,18H31V19H30zM31,18H32V19H31zM34,18H35V19H34zM35,18H36V19H35zM38,18H39V19H38zM39,18H40V19H39zM40,18H41V19H40zM4,19H5V20H4zM7,19H8V20H7zM8,19H9V20H8zM11,19H12V20H11zM14,19H15V20H14zM16,19H17V20H16zM22,19H23V20H22zM24,19H25V20H24zM25,19H26V20H25zM26,19H27V20H26zM30,19H31V20H30zM34,19H35V20H34zM35,19H36V20H35zM37,19H38V20H37zM40,19H41V20H40zM6,20H7V21H6zM7,20H8V21H7zM9,20H10V21H9zM10,20H11V21H10zM11,20H12V21H11zM12,20H13V21H12zM16,20H17V21H16zM17,20H18V21H17zM18,20H19V21H18zM19,20H20V21H19zM21,20H22V21H21zM23,20H24V21H23zM26,20H27V21H26zM27,20H28V21H27zM28,20H29V21H28zM29,20H30V21H29zM30,20H31V21H30zM31,20H32V21H31zM32,20H33V21H32zM34,20H35V21H34zM36,20H37V21H36zM37,20H38V21H37zM38,20H39V21H38zM40,20H41V21H40zM4,21H5V22H4zM8,21H9V22H8zM9,21H10V22H9zM12,21H13V22H12zM13,21H14V22H13zM14,21H15V22H14zM20,21H21V22H20zM22,21H23V22H22zM23,21H24V22H23zM27,21H28V22H27zM32,21H33V22H32zM35,21H36V22H35zM38,21H39V22H38zM39,21H40V22H39zM5,22H6V23H5zM6,22H7V23H6zM10,22H11V23H10zM11,22H12V23H11zM15,22H16V23H15zM16,22H17V23H16zM17,22H18V23H17zM19,22H20V23H19zM21,22H22V23H21zM22,22H23V23H22zM25,22H26V23H25zM26,22H27V23H26zM31,22H32V23H31zM33,22H34V23H33zM35,22H36V23H35zM36,22H37V23H36zM38,22H39V23H38zM39,22H40V23H39zM40,22H41V23H40zM4,23H5V24H4zM6,23H7V24H6zM8,23H9V24H8zM13,23H14V24H13zM14,23H15V24H14zM15,23H16V24H15zM18,23H19V24H18zM20,23H21V24H20zM22,23H23V24H22zM24,23H25V24H24zM25,23H26V24H25zM26,23H27V24H26zM28,23H29V24H28zM30,23H31V24H30zM32,23H33V24H32zM35,23H36V24H35zM37,23H38V24H37zM40,23H41V24H40zM5,24H6V25H5zM7,24H8V25H7zM10,24H11V25H10zM12,24H13V25H12zM13,24H14V25H13zM14,24H15V25H14zM15,24H16V25H15zM17,24H18V25H17zM18,24H19V25H18zM19,24H20V25H19zM21,24H22V25H21zM28,24H29V25H28zM29,24H30V25H29zM30,24H31V25H30zM31,24H32V25H31zM33,24H34V25H33zM34,24H35V25H34zM35,24H36V25H35zM36,24H37V25H36zM38,24H39V25H38zM39,24H40V25H39zM40,24H41V25H40zM6,25H7V26H6zM8,25H9V26H8zM12,25H13V26H12zM13,25H14V26H13zM14,25H15V26H14zM16,25H17V26H16zM20,25H21V26H20zM22,25H23V26H22zM23,25H24V26H23zM24,25H25V26H24zM27,25H28V26H27zM30,25H31V26H30zM32,25H33V26H32zM37,25H38V26H37zM38,25H39V26H38zM39,25H40V26H39zM5,26H6V27H5zM7,26H8V27H7zM8,26H9V27H8zM10,26H11V27H10zM12,26H13V27H12zM18,26H19V27H18zM19,26H20V27H19zM21,26H22V27H21zM22,26H23V27H22zM24,26H25V27H24zM26,26H27V27H26zM28,26H29V27H28zM31,26H32V27H31zM32,26H33V27H32zM33,26H34V27H33zM35,26H36V27H35zM37,26H38V27H37zM39,26H40V27H39zM40,26H41V27H40zM4,27H5V28H4zM5,27H6V28H5zM6,27H7V28H6zM16,27H17V28H16zM18,27H19V28H18zM20,27H21V28H20zM23,27H24V28H23zM25,27H26V28H25zM26,27H27V28H26zM27,27H28V28H27zM28,27H29V28H28zM31,27H32V28H31zM32,27H33V28H32zM36,27H37V28H36zM37,27H38V28H37zM40,27H41V28H40zM6,28H7V29H6zM8,28H9V29H8zM10,28H11V29H10zM14,28H15V29H14zM16,28H17V29H16zM17,28H18V29H17zM19,28H20V29H19zM21,28H22V29H21zM22,28H23V29H22zM29,28H30V29H29zM30,28H31V29H30zM33,28H34V29H33zM34,28H35V29H34zM35,28H36V29H35zM36,28H37V29H36zM38,28H39V29H38zM39,28H40V29H39zM40,28H41V29H40zM4,29H5V30H4zM5,29H6V30H5zM6,29H7V30H6zM8,29H9V30H8zM11,29H12V30H11zM13,29H14V30H13zM14,29H15V30H14zM17,29H18V30H17zM20,29H21V30H20zM21,29H22V30H21zM22,29H23V30H22zM23,29H24V30H23zM24,29H25V30H24zM25,29H26V30H25zM26,29H27V30H26zM27,29H28V30H27zM29,29H30V30H29zM37,29H38V30H37zM39,29H40V30H39zM4,30H5V31H4zM6,30H7V31H6zM10,30H11V31H10zM12,30H13V31H12zM13,30H14V31H13zM15,30H16V31H15zM16,30H17V31H16zM17,30H18V31H17zM18,30H19V31H18zM19,30H20V31H19zM20,30H21V31H20zM31,30H32V31H31zM32,30H33V31H32zM33,30H34V31H33zM34,30H35V31H34zM36,30H37V31H36zM37,30H38V31H37zM38,30H39V31H38zM39,30H40V31H39zM40,30H41V31H40zM4,31H5V32H4zM7,31H8V32H7zM8,31H9V32H8zM11,31H12V32H11zM13,31H14V32H13zM14,31H15V32H14zM15,31H16V32H15zM18,31H19V32H18zM19,31H20V32H19zM20,31H21V32H20zM23,31H24V32H23zM25,31H26V32H25zM26,31H27V32H26zM30,31H31V32H30zM33,31H34V32H33zM35,31H36V32H35zM40,31H41V32H40zM4,32H5V33H4zM6,32H7V33H6zM7,32H8V33H7zM9,32H10V33H9zM10,32H11V33H10zM13,32H14V33H13zM15,32H16V33H15zM16,32H17V33H16zM17,32H18V33H17zM18,32H19V33H18zM21,32H22V33H21zM24,32H25V33H24zM28,32H29V33H28zM29,32H30V33H29zM32,32H33V33H32zM33,32H34V33H33zM34,32H35V33H34zM35,32H36V33H35zM36,32H37V33H36zM37,32H38V33H37zM38,32H39V33H38zM12,33H13V34H12zM13,33H14V34H13zM14,33H15V34H14zM16,33H17V34H16zM18,33H19V34H18zM22,33H23V34H22zM23,33H24V34H23zM25,33H26V34H25zM26,33H27V34H26zM27,33H28V34H27zM29,33H30V34H29zM31,33H32V34H31zM32,33H33V34H32zM36,33H37V34H36zM37,33H38V34H37zM4,34H5V35H4zM5,34H6V35H5zM6,34H7V35H6zM7,34H8V35H7zM8,34H9V35H8zM9,34H10V35H9zM10,34H11V35H10zM12,34H13V35H12zM13,34H14V35H13zM17,34H18V35H17zM18,34H19V35H18zM19,34H20V35H19zM20,34H21V35H20zM22,34H23V35H22zM26,34H27V35H26zM28,34H29V35H28zM29,34H30V35H29zM30,34H31V35H30zM32,34H33V35H32zM34,34H35V35H34zM36,34H37V35H36zM39,34H40V35H39zM40,34H41V35H40zM4,35H5V36H4zM10,35H11V36H10zM13,35H14V36H13zM15,35H16V36H15zM20,35H21V36H20zM24,35H25V36H24zM25,35H26V36H25zM27,35H28V36H27zM30,35H31V36H30zM32,35H33V36H32zM36,35H37V36H36zM39,35H40V36H39zM40,35H41V36H40zM4,36H5V37H4zM6,36H7V37H6zM7,36H8V37H7zM8,36H9V37H8zM10,36H11V37H10zM12,36H13V37H12zM17,36H18V37H17zM18,36H19V37H18zM19,36H20V37H19zM20,36H21V37H20zM21,36H22V37H21zM22,36H23V37H22zM24,36H25V37H24zM27,36H28V37H27zM28,36H29V37H28zM29,36H30V37H29zM30,36H31V37H30zM31,36H32V37H31zM32,36H33V37H32zM33,36H34V37H33zM34,36H35V37H34zM35,36H36V37H35zM36,36H37V37H36zM37,36H38V37H37zM38,36H39V37H38zM40,36H41V37H40zM4,37H5V38H4zM6,37H7V38H6zM7,37H8V38H7zM8,37H9V38H8zM10,37H11V38H10zM12,37H13V38H12zM14,37H15V38H14zM15,37H16V38H15zM17,37H18V38H17zM21,37H22V38H21zM23,37H24V38H23zM25,37H26V38H25zM26,37H27V38H26zM27,37H28V38H27zM32,37H33V38H32zM33,37H34V38H33zM34,37H35V38H34zM35,37H36V38H35zM36,37H37V38H36zM4,38H5V39H4zM6,38H7V39H6zM7,38H8V39H7zM8,38H9V39H8zM10,38H11V39H10zM12,38H13V39H12zM13,38H14V39H13zM14,38H15V39H14zM19,38H20V39H19zM20,38H21V39H20zM22,38H23V39H22zM24,38H25V39H24zM25,38H26V39H25zM29,38H30V39H29zM30,38H31V39H30zM32,38H33V39H32zM33,38H34V39H33zM37,38H38V39H37zM39,38H40V39H39zM40,38H41V39H40zM4,39H5V40H4zM10,39H11V40H10zM12,39H13V40H12zM13,39H14V40H13zM18,39H19V40H18zM19,39H20V40H19zM22,39H23V40H22zM25,39H26V40H25zM31,39H32V40H31zM32,39H33V40H32zM34,39H35V40H34zM37,39H38V40H37zM40,39H41V40H40zM4,40H5V41H4zM5,40H6V41H5zM6,40H7V41H6zM7,40H8V41H7zM8,40H9V41H8zM9,40H10V41H9zM10,40H11V41H10zM12,40H13V41H12zM13,40H14V41H13zM14,40H15V41H14zM16,40H17V41H16zM17,40H18V41H17zM18,40H19V41H18zM19,40H20V41H19zM20,40H21V41H20zM21,40H22V41H21zM22,40H23V41H22zM23,40H24V41H23zM24,40H25V41H24zM29,40H30V41H29zM30,40H31V41H30zM38,40H39V41H38zM39,40H40V41H39zM40,40H41V41H40z" id="qr-path" fill="#000000" fill-opacity="1" fill-rule="nonzero" stroke="none" /></svg>